<svg width="142" height="30" viewBox="0 0 142 30" fill="none" xmlns="http://www.w3.org/2000/svg">
<path fill-rule="evenodd" clip-rule="evenodd" d="M97.5282 7.16126C93.4862 7.16126 91.998 8.87507 91.998 14.6006C91.998 20.3261 93.4862 22.0399 97.5282 22.0399C97.5282 22.0399 100.918 22.0481 102.536 22.0481C104.154 22.0481 104.684 22.608 104.684 23.8845V27.3485C104.684 28.625 104.154 29.1847 102.536 29.1847C100.918 29.1847 97.3137 29.1669 97.3137 29.1669L96.8585 29.1671C92.5546 29.1696 89.4021 29.1714 86.1791 27.1131C82.3821 24.9744 80.745 20.2695 80.745 14.5836C80.745 8.89772 82.3821 4.19276 86.1791 2.05406C89.402 -0.00410938 92.5545 -0.00230069 96.8582 0.000168664L97.3137 0.000342082C97.3137 0.000342082 100.918 0.0281553 102.536 0.0281553C104.154 0.0281553 104.684 0.587919 104.684 1.86447V5.3284C104.684 6.6049 104.154 7.16471 102.536 7.16471C100.918 7.16471 97.5282 7.16126 97.5282 7.16126ZM22.5887 24.6934C22.9731 26.1812 24.0449 27.2823 24.9165 27.8458C25.9198 28.4943 26.9218 28.7693 28.5443 28.7693H35.187C38.0053 28.7693 40.1402 27.0264 40.9089 24.0507L46.3104 2.54081C46.3531 2.37088 46.3957 2.15828 46.3957 1.90326C46.3957 0.968023 45.7244 0.415363 44.9764 0.415363H40.0594C39.7843 0.415363 38.9578 0.507407 38.6619 1.50007L34.3974 20.1279C34.2692 20.7655 33.9455 20.9066 33.6039 20.9066C33.318 20.9066 32.9988 20.6874 32.9378 20.3086L28.4101 1.82863C28.2851 0.89984 27.6851 0.415363 26.9679 0.415363H17.9227C16.8045 0.415363 16.4139 1.42524 16.4748 2.03628C16.4874 2.16319 22.5887 24.6934 22.5887 24.6934ZM1.42192 28.7692H9.93677C10.6546 28.7692 11.3582 28.1718 11.3582 27.3272V1.85348C11.3582 1.09638 10.7482 0.415605 9.90806 0.415605H1.42377C0.628095 0.415605 0 1.04535 0 1.83407V27.3534C0 28.3556 0.879114 28.7692 1.42192 28.7692ZM62.5285 8.68375L62.5347 11.3404L71.3771 11.3404C72.2163 11.3404 72.8253 12.0107 72.8253 12.7481V16.1742C72.8253 17.1113 72.09 17.6594 71.4163 17.6594L62.5347 17.6621V20.4287C62.5347 21.3215 63.1752 21.8742 64.1146 21.8742H74.2167C75.0172 21.8742 75.6436 22.522 75.6436 23.3003V27.1965C75.6771 28.2182 74.9364 28.7693 74.2025 28.7693H56.7934C54.197 28.7693 51.1764 26.6471 51.1764 23.07V6.49427C51.1764 2.57393 54.0269 0.415363 56.8124 0.415363H74.0205C74.7919 0.415363 75.4727 1.02705 75.4727 1.84844L75.4663 5.77879C75.4663 6.71467 74.6629 7.1983 74.0499 7.19735L63.9488 7.20621C63.2123 7.20621 62.5285 7.79098 62.5285 8.68375ZM125.482 22.2586C121.448 22.2586 119.962 20.3723 119.962 14.6005C119.962 8.82874 121.448 6.9424 125.482 6.9424C129.516 6.9424 130.906 8.82874 130.906 14.6005C130.906 20.3723 129.516 22.2586 125.482 22.2586ZM136.377 27.1114C140.167 24.9556 141.801 20.3242 141.801 14.5923C141.801 8.86055 140.167 4.22918 136.377 2.07331C133.16 -0.0014251 130.085 0.000362598 125.794 0.00285664C125.644 0.00294394 125.492 0.0030321 125.339 0.0030321C125.186 0.0030321 125.034 0.00294403 124.884 0.00285678C120.589 0.000362672 117.442 -0.00146413 114.225 2.07331C110.435 4.22918 108.801 8.86055 108.801 14.5923C108.801 20.3242 110.435 24.9556 114.225 27.1114C117.442 29.1863 120.589 29.1844 124.884 29.1819C125.035 29.1819 125.186 29.1818 125.339 29.1818C125.492 29.1818 125.644 29.1819 125.794 29.1819C130.084 29.1844 133.16 29.1862 136.377 27.1114Z" fill="#004fff"/>
</svg>
